# File created by Blade
# Date/Time:  Wed Apr 08 14:47:20 2015
# Frame Rate: 120.000 fps
#------------------------------------------------------
:FULLY-SPECIFIED
:DEGREES
2532
root 6.941479 31.592471 -6.954915 16.035283 2.177842 -8.869871
Spine -5.074071 2.008568 4.325131
Head 5.085373 -12.870113 2.728835
LeftShoulder -17.777706 46.403250 5.752546
LeftArm 55.444969 15.887671 -75.600187
LeftForeArm 1.708009 -0.000000 122.018016
LeftHand 7.512111 0.000000 -2.498069
LeftHandThumb1 -26.253704 0.000000 33.147579
RightShoulder -3.241697 -7.827329 -18.896794
RightArm 19.728124 -27.803778 77.867648
RightForeArm 3.013608 -0.000000 117.678741
RightHand 10.413467 -0.000000 0.443461
RightHandThumb1 -24.326973 -0.000000 -32.862282
LeftUpLeg -53.778334 0.762041 7.775458
LeftLeg 53.868970 -0.000000 -0.000000
LeftFoot -4.291121 7.138292 -19.015466
LeftToeBase -11.505519 -0.000000 0.000000
RightUpLeg -7.426070 -3.488466 13.655388
RightLeg 6.911288 -0.000000 -0.000000
RightFoot -22.623013 -23.572156 12.051075
RightToeBase -0.982868 -0.000000 0.000000
2533
root 6.941995 31.598432 -6.910757 16.173518 2.033540 -8.785057
Spine -5.136393 2.082788 4.169610
Head 5.230903 -12.798136 2.909398
LeftShoulder -17.542046 46.474526 6.089695
LeftArm 55.388935 16.174354 -75.548450
LeftForeArm 1.627103 -0.000000 121.954353
LeftHand 7.504929 -0.000000 -2.503140
LeftHandThumb1 -26.253704 0.000000 33.147579
RightShoulder -3.290415 -7.738459 -18.694106
RightArm 19.796460 -27.673458 77.992568
RightForeArm 2.700218 0.000000 117.427944
RightHand 10.355241 -0.000000 0.505543
RightHandThumb1 -24.326973 -0.000000 -32.862282
LeftUpLeg -54.146472 0.859141 7.735910
LeftLeg 53.108808 -0.000000 -0.000000
LeftFoot -4.542249 6.724062 -18.711732
LeftToeBase -11.862846 -0.000000 0.000000
RightUpLeg -7.299925 -3.362592 13.533248
RightLeg 6.555005 -0.000000 -0.000000
RightFoot -22.456403 -23.643964 11.952302
RightToeBase -0.857265 -0.000000 0.000000
2534
root 6.945536 31.605884 -6.862951 16.333064 1.873594 -8.640599
Spine -5.230688 2.105421 3.952172
Head 5.416546 -12.706477 3.060668
LeftShoulder -17.289185 46.532034 6.445708
LeftArm 55.292693 16.374998 -75.490226
LeftForeArm 1.620169 0.000000 121.921700
LeftHand 7.536615 -0.000000 -2.670034
LeftHandThumb1 -26.253704 0.000000 33.147579
RightShoulder -3.252787 -7.585901 -18.545829
RightArm 19.744856 -27.567485 78.282010
RightForeArm 2.373385 -0.000000 117.199537
RightHand 10.375939 -0.000000 0.515566
RightHandThumb1 -24.326973 -0.000000 -32.862282
LeftUpLeg -54.434726 0.857419 7.729096
LeftLeg 52.075898 -0.000000 -0.000000
LeftFoot -4.605262 6.127207 -18.676516
LeftToeBase -12.390213 -0.000000 0.000000
RightUpLeg -7.224399 -3.256950 13.360738
RightLeg 6.267935 -0.000000 -0.000000
RightFoot -22.266558 -23.756107 11.775295
RightToeBase -0.815434 -0.000000 0.000000
2535
root 6.955203 31.614473 -6.811181 16.526634 1.698559 -8.391133
Spine -5.352334 2.117515 3.605810
Head 5.579848 -12.609831 3.260944
LeftShoulder -17.079964 46.608974 6.785536
LeftArm 55.294787 16.547764 -75.365989
LeftForeArm 1.613105 -0.000000 121.868921
LeftHand 7.482905 0.000000 -2.791087
LeftHandThumb1 -26.253704 0.000000 33.147579
RightShoulder -3.251380 -7.479832 -18.382417
RightArm 19.749634 -27.457157 78.604002
RightForeArm 1.947437 -0.000000 116.993096
RightHand 10.390646 -0.000000 0.565379
RightHandThumb1 -24.326973 -0.000000 -32.862282
LeftUpLeg -54.655053 0.772758 7.653105
LeftLeg 50.736040 -0.000000 -0.000000
LeftFoot -4.418175 5.573957 -18.798533
LeftToeBase -12.596290 -0.000000 0.000000
RightUpLeg -7.247939 -3.283795 13.096014
RightLeg 6.131718 -0.000000 -0.000000
RightFoot -22.139602 -23.718737 11.579258
RightToeBase -0.984999 -0.000000 0.000000
2536
root 6.972321 31.623166 -6.755649 16.731471 1.483156 -8.091665
Spine -5.480405 2.137496 3.215520
Head 5.740093 -12.513683 3.424539
LeftShoulder -16.836611 46.599191 7.165113
LeftArm 55.223856 16.674631 -75.253675
LeftForeArm 1.484980 -0.000000 121.814968
LeftHand 7.480918 -0.000000 -3.075467
LeftHandThumb1 -26.253704 0.000000 33.147579
RightShoulder -3.213563 -7.404082 -18.267967
RightArm 19.783722 -27.370921 78.964641
RightForeArm 1.686138 -0.000000 116.831688
RightHand 10.410243 -0.000000 0.200672
RightHandThumb1 -24.326973 -0.000000 -32.862282
LeftUpLeg -54.789410 0.576226 7.617249
LeftLeg 49.163093 -0.000000 -0.000000
LeftFoot -4.054197 5.031371 -19.273807
LeftToeBase -13.019451 -0.000000 0.000000
RightUpLeg -7.357049 -3.353871 12.773263
RightLeg 6.159878 -0.000000 -0.000000
RightFoot -22.094360 -23.718263 11.366874
RightToeBase -0.966206 -0.000000 0.000000
2537
root 6.990475 31.630029 -6.697433 16.920007 1.276180 -7.795675
Spine -5.573513 2.069406 2.871146
Head 5.857565 -12.368579 3.487273
LeftShoulder -16.689119 46.562934 7.447642
LeftArm 55.197930 16.767679 -75.074362
LeftForeArm 1.608799 0.000000 121.769753
LeftHand 7.453105 -0.000000 -3.169933
LeftHandThumb1 -26.253704 0.000000 33.147579
RightShoulder -3.102336 -7.283820 -18.239783
RightArm 19.813215 -27.284816 79.413842
RightForeArm 1.428709 0.000000 116.698007
RightHand 10.435331 -0.000000 0.055123
RightHandThumb1 -24.326973 -0.000000 -32.862282
LeftUpLeg -54.846946 0.291009 7.664011
LeftLeg 47.403896 -0.000000 -0.000000
LeftFoot -3.532424 4.650966 -19.411588
LeftToeBase -12.782837 -0.000000 0.000000
RightUpLeg -7.464083 -3.320277 12.445355
RightLeg 6.211529 -0.000000 -0.000000
RightFoot -22.067908 -23.847548 11.161734
RightToeBase -0.986415 -0.000000 0.000000
2538
root 7.012210 31.635866 -6.631957 17.088232 1.064715 -7.512016
Spine -5.640739 2.064722 2.539856
Head 5.932329 -12.276752 3.559756
LeftShoulder -16.507607 46.558894 7.742628
LeftArm 55.265522 16.820493 -74.882237
LeftForeArm 1.743760 -0.000000 121.722597
LeftHand 7.398419 -0.000000 -3.268257
LeftHandThumb1 -26.253704 0.000000 33.147579
RightShoulder -3.025483 -7.160500 -18.245039
RightArm 19.783046 -27.207754 79.937726
RightForeArm 1.341415 0.000000 116.633712
RightHand 10.437404 -0.000000 0.056747
RightHandThumb1 -24.326973 -0.000000 -32.862282
LeftUpLeg -54.820087 -0.080649 7.808763
LeftLeg 45.499514 -0.000000 -0.000000
LeftFoot -2.794906 4.353915 -19.616515
LeftToeBase -12.777248 -0.000000 0.000000
RightUpLeg -7.578727 -3.302256 12.094569
RightLeg 6.365351 -0.000000 -0.000000
RightFoot -22.120563 -23.772069 11.132857
RightToeBase -1.045035 -0.000000 0.000000
2539
root 7.043964 31.639012 -6.562615 17.241673 0.811601 -7.184111
Spine -5.669626 2.088984 2.183137
Head 5.948839 -12.164013 3.574449
LeftShoulder -16.365158 46.498781 7.981108
LeftArm 55.378634 16.836383 -74.649634
LeftForeArm 1.757443 0.000000 121.657516
LeftHand 7.332946 -0.000000 -3.580221
LeftHandThumb1 -26.253704 0.000000 33.147579
RightShoulder -2.950254 -7.030564 -18.286650
RightArm 19.777537 -27.107873 80.453674
RightForeArm 1.305650 0.000000 116.615706
RightHand 10.403414 -0.000000 0.075169
RightHandThumb1 -24.326973 -0.000000 -32.862282
LeftUpLeg -54.685231 -0.595659 7.990917
LeftLeg 43.396568 -0.000000 -0.000000
LeftFoot -1.901431 4.350367 -19.616669
LeftToeBase -13.085830 -0.000000 0.000000
RightUpLeg -7.787799 -3.258561 11.707595
RightLeg 6.738158 -0.000000 -0.000000
RightFoot -22.243544 -23.950775 10.948169
RightToeBase -1.048490 -0.000000 0.000000
2540
root 7.076264 31.639126 -6.482406 17.375287 0.565851 -6.878429
Spine -5.690770 2.086546 1.869335
Head 5.945585 -12.046808 3.545070
LeftShoulder -16.219764 46.398167 8.199355
LeftArm 55.460213 16.826112 -74.422877
LeftForeArm 1.904470 -0.000000 121.623011
LeftHand 7.261694 -0.000000 -3.703562
LeftHandThumb1 -26.253704 0.000000 33.147579
RightShoulder -2.868262 -6.933820 -18.368808
RightArm 19.805651 -27.037612 80.881826
RightForeArm 1.430839 0.000000 116.658993
RightHand 10.371688 -0.000000 0.239740
RightHandThumb1 -24.326973 -0.000000 -32.862282
LeftUpLeg -54.514188 -1.089763 8.247029
LeftLeg 41.269888 -0.000000 -0.000000
LeftFoot -0.749153 4.214982 -20.091971
LeftToeBase -13.246118 -0.000000 0.000000
RightUpLeg -7.976770 -3.222281 11.322491
RightLeg 7.158789 -0.000000 -0.000000
RightFoot -22.396617 -24.001629 10.844300
RightToeBase -1.061286 -0.000000 0.000000
2541
root 7.106949 31.637327 -6.395968 17.491773 0.320624 -6.619939
Spine -5.689691 2.104613 1.611547
Head 5.913294 -11.967060 3.485427
LeftShoulder -16.116688 46.326882 8.360285
LeftArm 55.637760 16.756812 -74.182040
LeftForeArm 1.988213 0.000000 121.577548
LeftHand 7.218666 -0.000000 -3.955328
LeftHandThumb1 -26.253704 0.000000 33.147579
RightShoulder -2.766702 -6.787831 -18.479018
RightArm 19.790946 -26.984452 81.444894
RightForeArm 1.455303 -0.000000 116.721040
RightHand 10.361993 -0.000000 0.175848
RightHandThumb1 -24.326973 -0.000000 -32.862282
LeftUpLeg -54.246846 -1.751206 8.695325
LeftLeg 39.012804 -0.000000 -0.000000
LeftFoot 0.409223 4.409855 -20.070508
LeftToeBase -13.116378 -0.000000 0.000000
RightUpLeg -8.124078 -3.101135 10.953026
RightLeg 7.553669 -0.000000 -0.000000
RightFoot -22.600398 -23.956310 11.001285
RightToeBase -1.121854 -0.000000 0.000000
2542
root 7.144477 31.631602 -6.301688 17.580031 0.042934 -6.362453
Spine -5.658240 2.139073 1.373828
Head 5.844353 -11.841381 3.366248
LeftShoulder -16.006172 46.193058 8.508956
LeftArm 55.770789 16.690106 -73.987020
LeftForeArm 2.011835 -0.000000 121.537281
LeftHand 7.121705 -0.000000 -4.199963
LeftHandThumb1 -26.253704 0.000000 33.147579
RightShoulder -2.628391 -6.625092 -18.639707
RightArm 19.749422 -26.897614 82.021295
RightForeArm 1.537625 0.000000 116.813290
RightHand 10.414200 -0.000000 0.220405
RightHandThumb1 -24.326973 -0.000000 -32.862282
LeftUpLeg -53.928214 -2.424575 9.181060
LeftLeg 36.769436 -0.000000 -0.000000
LeftFoot 1.842114 4.586452 -20.157798
LeftToeBase -13.354231 -0.000000 0.000000
RightUpLeg -8.217912 -2.841215 10.557028
RightLeg 7.934681 -0.000000 -0.000000
RightFoot -22.770060 -24.102505 10.983048
RightToeBase -1.146873 -0.000000 0.000000
2543
root 7.184365 31.621620 -6.198770 17.647126 -0.244848 -6.134680
Spine -5.612270 2.160862 1.187030
Head 5.764500 -11.702714 3.210494
LeftShoulder -15.926794 46.067485 8.599346
LeftArm 55.912188 16.562505 -73.821908
LeftForeArm 2.071624 -0.000000 121.517573
LeftHand 7.063982 -0.000000 -4.434843
LeftHandThumb1 -26.253704 0.000000 33.147579
RightShoulder -2.504866 -6.517992 -18.801856
RightArm 19.892671 -26.871528 82.414901
RightForeArm 1.506058 -0.000000 116.914909
RightHand 10.420446 -0.000000 0.057869
RightHandThumb1 -24.326973 -0.000000 -32.862282
LeftUpLeg -53.585936 -3.060052 9.676424
LeftLeg 34.626440 -0.000000 -0.000000
LeftFoot 3.119697 4.914735 -20.236809
LeftToeBase -12.884997 -0.000000 0.000000
RightUpLeg -8.313302 -2.612857 10.188052
RightLeg 8.390469 -0.000000 -0.000000
RightFoot -22.989475 -24.244646 11.017307
RightToeBase -1.211267 -0.000000 0.000000
2544
root 7.226269 31.608611 -6.088401 17.689418 -0.562375 -5.929859
Spine -5.547563 2.233818 1.020588
Head 5.684843 -11.583706 3.020955
LeftShoulder -15.807900 45.950334 8.693312
LeftArm 56.086742 16.418167 -73.663009
LeftForeArm 2.135110 -0.000000 121.519718
LeftHand 6.874586 -0.000000 -4.627557
LeftHandThumb1 -26.253704 0.000000 33.147579
RightShoulder -2.352924 -6.374936 -18.954749
RightArm 19.946685 -26.813416 82.860866
RightForeArm 1.728941 -0.000000 117.047563
RightHand 10.507123 -0.000000 0.057412
RightHandThumb1 -24.326973 -0.000000 -32.862282
LeftUpLeg -53.216660 -3.625985 10.172765
LeftLeg 32.626077 -0.000000 -0.000000
LeftFoot 4.208825 5.180211 -20.212172
LeftToeBase -12.816375 -0.000000 0.000000
RightUpLeg -8.350529 -2.315467 9.826567
RightLeg 8.809146 -0.000000 -0.000000
RightFoot -23.200511 -24.431822 11.052218
RightToeBase -1.312633 -0.000000 0.000000
